<?xml version="1.0" encoding="UTF-8"?>
<svg id="Layer_1" data-name="Layer 1" xmlns="http://www.w3.org/2000/svg" viewBox="0 0 22 22" height='3em'>
  <defs>
    <style>
      .cls-1 {
        fill: #fff;
      }

      .cls-2 {
        fill: #d65b00;
      }
    </style>
  </defs>
  <circle class="cls-2" cx="11" cy="11" r="11"/>
  <g>
    <path class="cls-1" d="m15.91,12.12c-1.17,0-2.12-.95-2.12-2.12s.95-2.12,2.12-2.12,2.12.95,2.12,2.12-.95,2.12-2.12,2.12Zm0-3.29c-.65,0-1.18.53-1.18,1.18s.53,1.18,1.18,1.18,1.18-.53,1.18-1.18-.53-1.18-1.18-1.18Z"/>
    <path class="cls-1" d="m5.97,7.88v3.14c0,2.79,2.27,5.06,5.06,5.06h0c2.79,0,5.06-2.27,5.06-5.06v-3.14s-10.12,0-10.12,0Z"/>
  </g>
</svg>