<?xml version="1.0" encoding="UTF-8"?>
<svg id="Layer_1" data-name="Layer 1" xmlns="http://www.w3.org/2000/svg" viewBox="0 0 7.45 10.63" height="2em">
  <defs>
    <style>
      .cls-1 {
        fill: #fff;
      }

      .cls-2 {
        fill: #d65b00;
      }
    </style>
  </defs>
  <path class="cls-2" d="m7.45,3.73c0,2.06-2.84,6.9-3.73,6.9-.83,0-3.73-4.84-3.73-6.9S1.67,0,3.73,0s3.73,1.67,3.73,3.73Z"/>
  <g>
    <path class="cls-1" d="m5.26,3.92c-.4,0-.73-.33-.73-.73s.33-.73.73-.73.73.33.73.73-.33.73-.73.73Zm0-1.14c-.22,0-.41.18-.41.41s.18.41.41.41.41-.18.41-.41-.18-.41-.41-.41Z"/>
    <path class="cls-1" d="m1.82,2.45v1.09c0,.97.78,1.75,1.75,1.75h0c.97,0,1.75-.78,1.75-1.75v-1.09s-3.5,0-3.5,0Z"/>
  </g>
</svg>