<?xml version="1.0" encoding="UTF-8"?>
<svg id="Layer_1" data-name="Layer 1" xmlns="http://www.w3.org/2000/svg" viewBox="0 0 22 22" height='1em'>
  <defs>
    <style>
      .cls-1 {
        fill: #fff;
      }

      .cls-2 {
        fill: #4daf00;
      }
    </style>
  </defs>
  <circle class="cls-2" cx="11" cy="11" r="11"/>
  <path class="cls-1" d="m8.15,15.99h-1.06c-.11,0-.19-.09-.19-.19V6.62c0-.11.09-.19.19-.19h1.06c.11,0,.19.09.19.19v9.18c0,.11-.09.19-.19.19Z"/>
  <path class="cls-1" d="m9.77,15.99h-1.05c-.11,0-.19-.09-.19-.19v-7.83c0-.11.09-.19.19-.19h1.05c.11,0,.19.09.19.19v7.83c0,.11-.09.19-.19.19Z"/>
  <path class="cls-1" d="m11.38,15.99h-1.05c-.11,0-.19-.09-.19-.19V6.6c0-.11.09-.19.19-.19h1.05c.11,0,.19.09.19.19v9.19c0,.11-.09.19-.19.19Z"/>
  <path class="cls-1" d="m14.87,15.69l-1,.3c-.1.03-.21-.03-.24-.13l-1.94-6.49c-.03-.1.03-.21.13-.24l1-.3c.1-.03.21.03.24.13l1.94,6.49c.03.1-.03.21-.13.24Z"/>
</svg>