<?xml version="1.0" encoding="UTF-8"?>
<svg id="Layer_1" data-name="Layer 1" xmlns="http://www.w3.org/2000/svg" viewBox="0 0 21.55 30.71" height="2em">
  <defs>
    <style>
      .cls-1 {
        fill: #fff;
      }

      .cls-2 {
        fill: #4daf00;
      }
    </style>
  </defs>
  <path class="cls-2" d="m21.55,10.77c0,5.95-8.2,19.94-10.77,19.94C8.36,30.71,0,16.72,0,10.77S4.82,0,10.77,0s10.77,4.82,10.77,10.77Z"/>
  <path class="cls-1" d="m8.02,15.91h-1.2c-.12,0-.22-.1-.22-.22V5.28c0-.12.1-.22.22-.22h1.2c.12,0,.22.1.22.22v10.41c0,.12-.1.22-.22.22Z"/>
  <path class="cls-1" d="m9.86,15.91h-1.19c-.12,0-.22-.1-.22-.22V6.81c0-.12.1-.22.22-.22h1.19c.12,0,.22.1.22.22v8.88c0,.12-.1.22-.22.22Z"/>
  <path class="cls-1" d="m11.68,15.91h-1.19c-.12,0-.22-.1-.22-.22V5.27c0-.12.1-.22.22-.22h1.19c.12,0,.22.1.22.22v10.42c0,.12-.1.22-.22.22Z"/>
  <path class="cls-1" d="m15.64,15.57l-1.14.34c-.11.03-.24-.03-.27-.15l-2.2-7.36c-.03-.11.03-.24.15-.27l1.14-.34c.11-.03.24.03.27.15l2.2,7.36c.03.11-.03.24-.15.27Z"/>
</svg>