<?xml version="1.0" encoding="UTF-8"?>
<svg id="Layer_1" data-name="Layer 1" xmlns="http://www.w3.org/2000/svg" viewBox="0 0 733.7 363.13">
  <defs>
    <style>
      .cls-1 {
        fill: #00c567;
      }
    </style>
  </defs>
  <g>
    <path d="m247.52,130.96c-8.82-8.29-18.48-15.36-28.72-21.8-10.46-6.58-21.77-10.96-33.46-14.44-7.85-2.33-16.06-3.08-24.12-4.48-10.55-1.83-20.96-.96-31.39-.25-8.81.59-17.44,2.58-25.99,5.11-10.15,3.01-19.9,6.69-29.05,11.99-5.93,3.77-12.97,5.86-17.67,11.52-.46.4-.91.79-1.37,1.19-2.1.12-2.81,2-4.06,3.2-.24.23-.49.46-.73.69-2.3.74-3.75,2.58-5.42,4.14-8.74,7-11.6,16.22-6.6,24.59,6.12,10.25,16.91,12.87,26.98,4.54,7.05-5.82,13.66-12.11,21.53-16.93,19.2-11.75,39.66-17.82,62.45-16.39,12.11.76,23.62,3.09,34.9,7.31,6,2.24,11.99,4.75,17.25,8.19,8.28,5.41,15.73,12.02,23.25,18.51,4.26,3.67,9.35,5.18,15.9,3.08,12.05-3.86,17.2-19.58,6.33-29.79Z"/>
    <path d="m284.85,79.66c-2.24-1.85-4.24-3.94-6.45-5.78-12.85-10.7-26.77-19.71-41.79-27.13-14.48-7.14-29.74-11.86-45.31-15.76-8.08-2.02-16.33-3.16-24.61-3.93-7.57-.7-15.14-1.9-22.79-1.18-1.05-.06-2.1-.24-3.14-.17-11.2.71-22.35,1.66-33.44,3.6-14.11,2.48-27.74,6.26-40.99,11.78-11.86,4.94-23.11,10.84-33.88,17.8-10.37,6.7-20.09,14.2-28.64,23.05-3.01,3.12-4.64,7.59-3.35,12.04,3.93,13.61,19.34,17.48,29.55,7.7,3.5-3.35,7.22-6.51,11.11-9.41,15.23-11.35,32-19.83,50.14-25.37,11.44-3.49,23.21-5.71,35.17-6.69,4.38-.97,8.86-.99,13.29-1.05,9.96-.14,19.86.7,29.79,1.77,11.33,1.23,22.27,3.89,33.03,7.16,10.4,3.17,20.45,7.54,29.88,13.1,9.67,5.7,18.92,11.97,27.11,19.75,5.29,5.02,11.36,7.78,18.89,5.42,5.4-1.69,10.38-5.53,11.65-10.02,1.58-5.56.11-12.33-5.19-16.69Z"/>
    <path d="m196.71,170.99c-19.87-16.11-42.85-21.25-67.77-16.84-16.62,2.94-30.71,11.34-42.31,23.52-4.93,5.17-6.34,11.87-3.24,18.49,2.81,5.98,7.09,10.77,13.93,10.3,4.17.12,7.12-.93,10.04-2.69,3.33-2,5.77-4.95,8.66-7.38,16.97-14.2,44.69-13.02,60.77,1.93,3.34,3.1,6.5,6.69,11.52,7.71,11.68,2.38,21.37-6.72,19.95-18.99-.89-7.74-6.46-11.91-11.56-16.05Z"/>
  </g>
  <path class="cls-1" d="m222.46,300.59c-18.47,0-33.5-15.03-33.5-33.5s15.03-33.5,33.5-33.5,33.5,15.03,33.5,33.5-15.03,33.5-33.5,33.5Zm0-52.1c-10.25,0-18.6,8.34-18.6,18.6s8.34,18.6,18.6,18.6,18.6-8.34,18.6-18.6-8.34-18.6-18.6-18.6Z"/>
  <path class="cls-1" d="m65.3,233.44v49.67c0,44.2,35.83,80.02,80.02,80.02h0c44.2,0,80.02-35.83,80.02-80.02v-49.67s-160.05,0-160.05,0Zm122.72,90.38c-8.59,8.78-18.95,14.78-31.11,16.77-18.24,2.98-34.97-.98-49.32-12.93-3.69-3.07-7.71-6.17-8.29-11.83-.92-8.97,6.24-15.52,14.75-13.68,3.65.79,5.93,3.44,8.34,5.74,11.61,11.06,31.83,12.19,44.35,1.98,2.14-1.74,3.94-3.88,6.4-5.31,2.15-1.25,4.32-1.99,7.36-1.87,5-.28,8.08,3.26,10.08,7.65,2.21,4.86,1.11,9.74-2.54,13.47Z"/>
  <g>
    <path d="m385.13,92.86c-.17,1.2-.39,2.33-.65,3.38s-.51,1.96-.75,2.74c-.24.78-.44,1.42-.62,1.91-.17.49-.28.76-.33.8-.43,1.03-1.19,1.54-2.27,1.54-.61,0-1.17-.23-1.69-.7-.52-.47-.78-1.06-.78-1.77,0-.27.04-.47.13-.6s.22-.4.39-.8.39-1.07.65-2.01.58-2.39.97-4.35c-.74,0-1.49-.02-2.27-.07-.78-.04-1.5-.2-2.18-.47s-1.22-.69-1.66-1.27c-.43-.58-.65-1.38-.65-2.41,0-.76.21-1.78.62-3.08.41-1.29.96-2.56,1.66-3.81.69-1.25,1.47-2.33,2.34-3.25s1.73-1.37,2.6-1.37c1,0,1.81.38,2.44,1.14.63.76,1.11,1.68,1.46,2.78.35,1.09.59,2.24.75,3.45.15,1.21.23,2.25.23,3.14.74,0,1.46,0,2.18-.03.71-.02,1.4-.03,2.04-.03,2.47,0,4.35.56,5.65,1.67,1.3,1.12,1.95,2.94,1.95,5.49,0,1.03-.07,2.1-.2,3.21-.13,1.12-.28,2.26-.45,3.45-.17,1.18-.33,2.35-.46,3.51s-.19,2.3-.19,3.41c0,1.61.22,2.93.65,3.98.43,1.05.97,1.88,1.62,2.51.65.62,1.34,1.06,2.08,1.3.74.25,1.41.37,2.01.37,1.86,0,3.61-.62,5.26-1.87,1.64-1.25,3.16-2.75,4.55-4.52,1.38-1.76,2.63-3.62,3.73-5.59,1.1-1.96,2.02-3.68,2.76-5.15.22-.4.52-.71.91-.94.39-.22.8-.33,1.23-.33.78,0,1.38.26,1.82.77.43.51.65,1.08.65,1.71,0,.45-.09.85-.26,1.21-1,1.83-2.15,3.89-3.47,6.19-1.32,2.3-2.82,4.45-4.51,6.46-1.69,2.01-3.58,3.7-5.68,5.08-2.1,1.38-4.41,2.07-6.92,2.07-1.56,0-3.03-.3-4.42-.9-1.39-.6-2.59-1.47-3.6-2.61-1.02-1.14-1.83-2.54-2.44-4.21-.61-1.67-.91-3.56-.91-5.65,0-2.23.22-4.45.65-6.66s.65-4.32.65-6.32c0-.85-.18-1.48-.55-1.91-.37-.42-1.18-.64-2.43-.64h-1.98c-.71,0-1.48.02-2.31.07Zm-4.35-4.95c0-.31-.01-.72-.03-1.24-.02-.51-.07-1.01-.13-1.51-.07-.49-.15-.91-.26-1.27-.11-.36-.23-.54-.36-.54s-.29.17-.49.5c-.2.33-.4.74-.62,1.2-.22.47-.41.97-.58,1.5s-.3.98-.39,1.34h2.86Z"/>
    <path d="m426.43,113c.91,1.29,2.08,2.33,3.51,3.11s3.18,1.17,5.26,1.17,4.05-.52,5.78-1.57c1.73-1.05,3.31-2.42,4.74-4.12,1.43-1.69,2.71-3.59,3.83-5.69,1.12-2.1,2.14-4.19,3.05-6.29.22-.49.52-.86.91-1.1s.82-.37,1.3-.37c.74,0,1.33.27,1.79.8.46.54.68,1.12.68,1.74,0,.22-.02.41-.06.57-.04.16-.11.32-.19.5-2.99,6.78-6.25,11.89-9.77,15.32s-7.52,5.2-11.98,5.29c-2.86,0-5.33-.57-7.4-1.71-2.08-1.14-3.79-2.61-5.13-4.42-1.34-1.81-2.34-3.85-2.99-6.12s-.97-4.55-.97-6.82.27-4.37.81-6.29c.54-1.92,1.32-3.59,2.34-5.02,1.02-1.43,2.23-2.54,3.64-3.34,1.41-.8,2.95-1.2,4.64-1.2,1,0,1.98.21,2.96.64.97.42,1.85,1.03,2.63,1.81.78.78,1.41,1.73,1.88,2.84.48,1.12.71,2.39.71,3.81,0,1.83-.3,3.55-.91,5.15s-1.44,3.1-2.5,4.48c-1.06,1.38-2.33,2.65-3.8,3.81-1.47,1.16-3.05,2.16-4.74,3.01Zm-1.95-4.35c1.34-.58,2.56-1.32,3.67-2.21,1.1-.89,2.04-1.87,2.82-2.94s1.38-2.2,1.82-3.38c.43-1.18.65-2.38.65-3.58,0-1.34-.33-2.35-.97-3.04s-1.41-1.04-2.27-1.04c-1.17,0-2.17.33-2.99,1-.82.67-1.49,1.54-2.01,2.61s-.9,2.26-1.14,3.58c-.24,1.32-.36,2.62-.36,3.91,0,.8.08,1.65.23,2.54.15.89.33,1.74.55,2.54Z"/>
    <path d="m467.6,114.4c.65-1.34,1.48-3,2.5-4.98,1.02-1.98,2.08-3.98,3.18-5.99,1.1-2.01,2.19-3.9,3.25-5.69,1.06-1.78,1.96-3.14,2.7-4.08,1.25-1.56,2.55-2.68,3.9-3.34s2.58-1,3.7-1,2.09.25,2.89.74c.8.49,1.46,1.15,1.98,1.97s.91,1.78,1.17,2.88c.26,1.09.39,2.26.39,3.51,0,.71-.03,1.65-.1,2.81-.07,1.16-.13,2.41-.2,3.75-.06,1.34-.13,2.72-.19,4.15-.07,1.43-.12,2.77-.16,4.01.65-1.34,1.38-2.82,2.21-4.45.82-1.63,1.66-3.24,2.5-4.85.84-1.61,1.66-3.11,2.43-4.52.78-1.41,1.49-2.55,2.14-3.45,1.86-2.63,3.6-4.39,5.23-5.29,1.62-.89,3.06-1.34,4.32-1.34,1.47,0,2.68.28,3.64.84.95.56,1.7,1.27,2.24,2.14.54.87.92,1.84,1.14,2.91s.33,2.1.33,3.08c0,1.52-.11,3.1-.33,4.75-.22,1.65-.32,3.61-.32,5.89,0,.94.04,1.87.13,2.81.09.94.27,1.76.55,2.48.28.71.72,1.29,1.33,1.74.61.45,1.43.67,2.47.67,1.12,0,2.23-.3,3.31-.9,1.08-.6,2.12-1.39,3.12-2.38,1-.98,1.94-2.1,2.82-3.34.89-1.25,1.7-2.5,2.43-3.75.74-1.25,1.39-2.44,1.95-3.58s1.02-2.11,1.36-2.91c.22-.49.52-.87.91-1.14.39-.27.82-.4,1.3-.4.74,0,1.33.28,1.79.84.45.56.68,1.15.68,1.77,0,.31-.06.62-.19.94-.17.36-.52,1.1-1.04,2.24s-1.21,2.43-2.08,3.88c-.87,1.45-1.87,2.98-3.02,4.58-1.15,1.61-2.41,3.09-3.8,4.45-1.39,1.36-2.88,2.48-4.48,3.35-1.6.87-3.29,1.3-5.06,1.3-1.91,0-3.45-.35-4.64-1.04-1.19-.69-2.14-1.62-2.86-2.78-.71-1.16-1.2-2.5-1.46-4.01-.26-1.52-.39-3.1-.39-4.75,0-2.18.11-4.2.32-6.05.22-1.85.33-3.29.33-4.32,0-1.11-.1-1.96-.29-2.54-.2-.58-.43-.99-.71-1.24-.28-.24-.55-.38-.81-.4-.26-.02-.45-.03-.58-.03-1.04,0-2.13.59-3.28,1.77-1.15,1.18-2.33,2.75-3.54,4.72-1.21,1.96-2.46,4.19-3.73,6.69-1.28,2.5-2.57,5.04-3.86,7.63-.74,1.43-1.35,2.61-1.85,3.55-.5.94-.97,1.67-1.43,2.21-.45.54-.9.91-1.33,1.14-.43.22-.91.33-1.43.33-1.13,0-1.98-.4-2.57-1.2s-.88-1.85-.88-3.14c0-.67.02-1.56.07-2.68.04-1.11.09-2.34.13-3.68.04-1.34.11-2.72.19-4.15.09-1.43.15-2.8.2-4.11.04-1.32.09-2.49.13-3.51.04-1.03.06-1.81.06-2.34,0-1.16-.19-2-.58-2.51-.39-.51-.84-.77-1.36-.77-.48,0-1.01.18-1.59.54-.58.36-1.27,1.05-2.04,2.07-.61.8-1.38,1.97-2.31,3.51s-1.92,3.25-2.95,5.12-2.07,3.79-3.08,5.75c-1.02,1.96-1.89,3.72-2.63,5.29-.91,1.87-1.82,3.16-2.73,3.85-.91.69-1.8,1.04-2.66,1.04-1.26,0-2.19-.39-2.79-1.17-.61-.78-.91-1.82-.91-3.11,0-.13.03-.94.1-2.41.06-1.47.14-3.27.23-5.39.09-2.12.18-4.38.29-6.79.11-2.41.21-4.66.29-6.76.04-1.11,0-2.14-.13-3.08s-.3-1.49-.52-1.67c-.35.09-1.03.92-2.05,2.48-1.02,1.56-2.3,4.28-3.86,8.16-.22.49-.54.87-.97,1.14-.43.27-.89.4-1.36.4-.74,0-1.32-.26-1.75-.77-.43-.51-.65-1.1-.65-1.77,0-.31.06-.65.19-1,1.95-4.77,3.81-8.28,5.58-10.54,1.77-2.25,3.51-3.38,5.19-3.38,1,0,1.83.23,2.5.7.67.47,1.2,1.07,1.59,1.81s.67,1.57.84,2.51c.17.94.26,1.85.26,2.74,0,3.97-.1,7.61-.29,10.91-.19,3.3-.4,6.62-.62,9.97Z"/>
    <path d="m567.53,113c-1.08,0-2.04-.09-2.86-.27-.65,1.34-1.43,2.58-2.34,3.71-.91,1.14-1.96,2.13-3.15,2.98-1.19.85-2.52,1.52-3.99,2.01-1.47.49-3.07.74-4.81.74-2.04,0-3.9-.37-5.58-1.1-1.69-.74-3.16-1.76-4.42-3.08-1.26-1.32-2.23-2.9-2.92-4.75-.69-1.85-1.04-3.89-1.04-6.12,0-2.85.5-5.34,1.49-7.46,1-2.12,2.14-3.88,3.44-5.29,1.3-1.4,2.6-2.45,3.9-3.14,1.3-.69,2.27-1.04,2.92-1.04.74,0,1.29.2,1.66.6.37.4.55.94.55,1.61,0,.76-.23,1.33-.68,1.71-.45.38-1.03.75-1.72,1.1-.69.36-1.43.86-2.21,1.5-.78.65-1.5,1.46-2.18,2.44-.67.98-1.22,2.14-1.66,3.48s-.65,2.83-.65,4.48c0,1.47.22,2.84.65,4.12.43,1.27,1.06,2.36,1.88,3.28.82.92,1.8,1.63,2.92,2.14,1.12.51,2.38.77,3.77.77,2.47,0,4.51-.59,6.14-1.77,1.62-1.18,2.87-2.69,3.73-4.52-2.55-1.38-4.65-3.35-6.3-5.89-1.65-2.54-2.47-5.4-2.47-8.56,0-2.54.59-4.62,1.79-6.22,1.19-1.61,2.76-2.41,4.71-2.41,1.17,0,2.27.29,3.31.87,1.04.58,1.96,1.5,2.76,2.74.8,1.25,1.44,2.85,1.92,4.82.48,1.96.71,4.31.71,7.03,0,1.43-.17,2.92-.52,4.48.26.04.52.07.78.07h.84c1.47,0,2.79-.18,3.96-.54,1.17-.36,2.23-.89,3.18-1.61.95-.71,1.81-1.63,2.56-2.74.76-1.11,1.48-2.41,2.18-3.88.13-.27.41-.52.84-.77.43-.25.87-.37,1.3-.37.56,0,1.09.23,1.59.7.5.47.75,1.08.75,1.84,0,.36-.09.75-.26,1.17-.17.42-.35.81-.52,1.17-.74,1.34-1.59,2.62-2.57,3.85-.97,1.23-2.12,2.3-3.44,3.21-1.32.92-2.8,1.64-4.45,2.17-1.65.54-3.48.78-5.52.74Zm-11.1-16.86c0,.85.11,1.74.33,2.68.22.94.55,1.86,1.01,2.78.46.92,1.02,1.79,1.69,2.61.67.83,1.46,1.53,2.37,2.11.13-.94.2-1.85.2-2.74,0-1.2-.09-2.43-.26-3.68-.17-1.25-.42-2.4-.75-3.45-.32-1.05-.73-1.9-1.2-2.54-.48-.65-1.04-.97-1.69-.97-.26,0-.61.2-1.04.6s-.65,1.27-.65,2.61Z"/>
    <path d="m632.21,53.39c0,.71-.24,1.28-.71,1.71s-1.06.64-1.75.64h-32.92v.74c0,2.72-.19,5.62-.58,8.7-.39,3.08-.92,6.14-1.59,9.2-.67,3.06-1.43,6.03-2.27,8.93-.84,2.9-1.71,5.58-2.6,8.03-.89,2.45-1.76,4.58-2.63,6.39-.87,1.81-1.65,3.16-2.34,4.05.56,2.05,1.23,3.96,2.01,5.72.78,1.76,1.66,3.3,2.63,4.62.97,1.32,2.02,2.35,3.15,3.11,1.13.76,2.34,1.14,3.64,1.14,1.51,0,3.02-.66,4.51-1.97,1.49-1.31,2.88-2.88,4.16-4.68,1.28-1.81,2.4-3.63,3.38-5.49.97-1.85,1.68-3.33,2.11-4.45.43-1.07,1.19-1.61,2.27-1.61.74,0,1.33.27,1.79.8.46.54.68,1.12.68,1.74,0,.31-.06.63-.19.94-.13.31-.44,1.03-.94,2.14-.5,1.12-1.15,2.41-1.95,3.88-.8,1.47-1.73,3.02-2.79,4.65-1.06,1.63-2.25,3.11-3.57,4.45-1.32,1.34-2.74,2.45-4.25,3.34s-3.12,1.34-4.8,1.34c-2.99,0-5.67-1-8.05-3.01-2.38-2.01-4.41-4.82-6.07-8.43-1.67-3.61-2.93-7.89-3.8-12.85-.87-4.95-1.3-10.37-1.3-16.26,0-1.47.02-3.2.07-5.19.04-1.98.13-4.08.26-6.29.13-2.21.32-4.48.58-6.82s.61-4.63,1.04-6.86h-23.31c-.69,0-1.28-.21-1.75-.64-.48-.42-.71-.99-.71-1.71s.24-1.28.71-1.71c.48-.42,1.06-.64,1.75-.64h24.42c.43-1.61.94-3.08,1.53-4.42.58-1.34,1.25-2.5,2.01-3.48.76-.98,1.6-1.75,2.53-2.31.93-.56,1.96-.84,3.08-.84s2.02.28,2.82.84c.8.56,1.48,1.33,2.05,2.31.56.98,1.01,2.14,1.33,3.48.32,1.34.57,2.81.75,4.42h33.18c.69,0,1.28.21,1.75.64s.71.99.71,1.71Zm-48.9,41.68c1.3-2.94,2.48-6.12,3.54-9.53,1.06-3.41,1.97-6.86,2.73-10.34.76-3.48,1.34-6.89,1.75-10.24.41-3.35.62-6.42.62-9.23h-7.66c-.61,2.77-1.09,6.19-1.46,10.27-.37,4.08-.55,9.04-.55,14.89,0,3.26.09,5.99.26,8.2.17,2.21.43,4.21.78,5.99Zm6.04-50.04c-.39,0-.95.44-1.69,1.3-.74.87-1.47,2.44-2.21,4.72h6.23c-.22-1.87-.53-3.34-.94-4.42-.41-1.07-.88-1.61-1.4-1.61Z"/>
    <path d="m618.44,113c.91,1.29,2.08,2.33,3.51,3.11s3.18,1.17,5.26,1.17,4.05-.52,5.78-1.57c1.73-1.05,3.31-2.42,4.74-4.12,1.43-1.69,2.71-3.59,3.83-5.69,1.12-2.1,2.14-4.19,3.05-6.29.22-.49.52-.86.91-1.1s.82-.37,1.3-.37c.74,0,1.33.27,1.79.8.46.54.68,1.12.68,1.74,0,.22-.02.41-.06.57-.04.16-.11.32-.19.5-2.99,6.78-6.25,11.89-9.77,15.32s-7.52,5.2-11.98,5.29c-2.86,0-5.33-.57-7.4-1.71-2.08-1.14-3.79-2.61-5.13-4.42-1.34-1.81-2.34-3.85-2.99-6.12s-.97-4.55-.97-6.82.27-4.37.81-6.29c.54-1.92,1.32-3.59,2.34-5.02,1.02-1.43,2.23-2.54,3.64-3.34,1.41-.8,2.95-1.2,4.64-1.2,1,0,1.98.21,2.96.64.97.42,1.85,1.03,2.63,1.81.78.78,1.41,1.73,1.88,2.84.48,1.12.71,2.39.71,3.81,0,1.83-.3,3.55-.91,5.15s-1.44,3.1-2.5,4.48c-1.06,1.38-2.33,2.65-3.8,3.81-1.47,1.16-3.05,2.16-4.74,3.01Zm-1.95-4.35c1.34-.58,2.56-1.32,3.67-2.21,1.1-.89,2.04-1.87,2.82-2.94s1.38-2.2,1.82-3.38c.43-1.18.65-2.38.65-3.58,0-1.34-.33-2.35-.97-3.04s-1.41-1.04-2.27-1.04c-1.17,0-2.17.33-2.99,1-.82.67-1.49,1.54-2.01,2.61s-.9,2.26-1.14,3.58c-.24,1.32-.36,2.62-.36,3.91,0,.8.08,1.65.23,2.54.15.89.33,1.74.55,2.54Z"/>
  </g>
  <g>
    <path d="m401.23,215.44c-4.89,0-9.36-.99-13.41-2.95-4.05-1.97-7.27-4.97-9.67-9s-3.6-9.12-3.6-15.27v-47.96h19.34v50.84c0,1.35.33,2.59.99,3.74.66,1.15,1.55,2.07,2.68,2.74,1.13.67,2.35,1.01,3.67,1.01s2.54-.33,3.67-1.01c1.13-.67,2.02-1.58,2.68-2.74.66-1.15.99-2.4.99-3.74v-25.35c0-5.76,1.1-10.66,3.32-14.69,2.21-4.03,5.32-7.13,9.32-9.29,4-2.16,8.68-3.24,14.04-3.24s10.04,1.08,14.04,3.24c4,2.16,7.1,5.26,9.32,9.29,2.21,4.03,3.32,8.93,3.32,14.69v25.35c0,1.35.33,2.59.99,3.74.66,1.15,1.55,2.07,2.68,2.74,1.13.67,2.35,1.01,3.67,1.01,1.41,0,2.66-.33,3.74-1.01,1.08-.67,1.95-1.58,2.61-2.74.66-1.15.99-2.4.99-3.74v-50.84h19.34v47.96c0,6.15-1.2,11.23-3.6,15.27s-5.62,7.03-9.67,9c-4.05,1.97-8.52,2.95-13.41,2.95s-9.22-.99-13.27-2.95c-4.05-1.97-7.29-4.97-9.74-9-2.45-4.03-3.67-9.12-3.67-15.27v-25.35c0-1.44-.33-2.71-.99-3.82-.66-1.1-1.53-1.99-2.61-2.66-1.08-.67-2.33-1.01-3.74-1.01-1.32,0-2.54.34-3.67,1.01-1.13.67-2.02,1.56-2.68,2.66-.66,1.11-.99,2.38-.99,3.82v25.35c0,6.15-1.22,11.23-3.67,15.27-2.45,4.03-5.67,7.03-9.67,9-4,1.97-8.45,2.95-13.34,2.95Z"/>
    <path d="m548.86,215.44c-7.43,0-14.07-1.71-19.9-5.11-5.84-3.41-10.45-8.02-13.83-13.83-3.39-5.81-5.08-12.31-5.08-19.51s1.69-13.7,5.08-19.51c3.39-5.81,8-10.42,13.83-13.83,5.83-3.41,12.47-5.11,19.9-5.11s14.07,1.71,19.9,5.11c5.83,3.41,10.44,8.02,13.83,13.83,3.39,5.81,5.08,12.31,5.08,19.51s-1.69,13.71-5.08,19.51c-3.39,5.81-8,10.42-13.83,13.83-5.84,3.41-12.47,5.11-19.9,5.11Zm0-16.85c3.95,0,7.36-.96,10.23-2.88,2.87-1.92,5.08-4.51,6.63-7.78,1.55-3.26,2.33-6.91,2.33-10.94s-.78-7.68-2.33-10.95c-1.55-3.26-3.76-5.85-6.63-7.78-2.87-1.92-6.28-2.88-10.23-2.88s-7.36.96-10.23,2.88c-2.87,1.92-5.08,4.51-6.63,7.78-1.55,3.27-2.33,6.91-2.33,10.95s.78,7.68,2.33,10.94c1.55,3.27,3.76,5.86,6.63,7.78,2.87,1.92,6.28,2.88,10.23,2.88Z"/>
    <path d="m601.09,213.71v-52.56c0-6.53,1.81-11.64,5.43-15.34,3.62-3.69,8.63-5.54,15.03-5.54h19.9v16.85h-16.51c-1.22,0-2.28.43-3.18,1.3-.9.86-1.34,1.97-1.34,3.31v51.99h-19.34Z"/>
    <path d="m652.04,213.71v-105.13h19.34v59.76h11.43l17.36-28.08h21.17l-19.76,31.11c6.12,2.59,10.87,6.58,14.26,11.95,3.39,5.38,5.08,11.38,5.08,18v12.38h-19.34v-12.38c0-2.97-.73-5.69-2.19-8.14-1.46-2.45-3.37-4.39-5.72-5.83-2.35-1.44-4.99-2.16-7.9-2.16h-14.4v28.51h-19.34Z"/>
  </g>
  <g>
    <path d="m375.34,303.64v-16.12h33.63c1.08,0,2.05-.23,2.9-.69.85-.46,1.53-1.1,2.03-1.93.49-.83.74-1.74.74-2.76,0-1.1-.25-2.07-.74-2.89-.5-.83-1.17-1.49-2.03-2-.86-.5-1.82-.76-2.9-.76h-12.97c-4.41,0-8.4-.71-11.95-2.14-3.56-1.42-6.4-3.72-8.51-6.89-2.12-3.17-3.17-7.33-3.17-12.47,0-3.95.97-7.56,2.9-10.82,1.94-3.26,4.55-5.88,7.83-7.86,3.29-1.98,6.91-2.96,10.87-2.96h32.28v16.12h-30.53c-1.35,0-2.55.46-3.58,1.38-1.04.92-1.55,2.12-1.55,3.58s.49,2.69,1.49,3.65c.99.96,2.21,1.45,3.65,1.45h12.97c4.95,0,9.23.76,12.83,2.27,3.6,1.52,6.39,3.88,8.38,7.1,1.98,3.22,2.97,7.44,2.97,12.68,0,4.04-.99,7.74-2.97,11.09-1.98,3.36-4.64,6.02-7.97,7.99-3.33,1.98-7.07,2.96-11.21,2.96h-35.39Z"/>
    <path d="m483,231.7c5.85,0,11.03.94,15.53,2.83,4.5,1.88,8.28,4.55,11.35,7.99,3.06,3.45,5.4,7.49,7.02,12.13,1.62,4.64,2.43,9.72,2.43,15.23,0,6.89-1.37,13-4.12,18.33-2.75,5.33-6.6,9.51-11.55,12.54-4.95,3.03-10.81,4.55-17.56,4.55-2.88,0-5.65-.41-8.31-1.24-2.66-.83-5.04-2.02-7.16-3.58-2.12-1.56-3.9-3.4-5.34-5.51h-.13v39h-18.51v-64.09c0-7.81,1.49-14.56,4.46-20.26,2.97-5.7,7.18-10.11,12.63-13.23,5.45-3.12,11.86-4.69,19.25-4.69Zm0,16.12c-3.6,0-6.73.92-9.39,2.76-2.66,1.84-4.68,4.32-6.08,7.44-1.4,3.12-2.09,6.62-2.09,10.47s.7,7.35,2.09,10.47c1.4,3.12,3.42,5.61,6.08,7.44,2.65,1.84,5.79,2.76,9.39,2.76s6.84-.92,9.46-2.76c2.61-1.84,4.61-4.32,6.01-7.44,1.39-3.12,2.09-6.62,2.09-10.47s-.7-7.35-2.09-10.47c-1.4-3.12-3.4-5.6-6.01-7.44-2.61-1.84-5.76-2.76-9.46-2.76Z"/>
    <path d="m565.93,305.29c-7.11,0-13.46-1.63-19.05-4.89-5.58-3.26-10-7.67-13.24-13.23-3.24-5.56-4.86-11.78-4.86-18.67s1.62-13.11,4.86-18.67c3.24-5.56,7.65-9.97,13.24-13.23,5.58-3.26,11.93-4.89,19.05-4.89s13.46,1.63,19.05,4.89c5.58,3.26,10,7.67,13.24,13.23,3.24,5.56,4.86,11.78,4.86,18.67s-1.62,13.12-4.86,18.67c-3.24,5.56-7.66,9.97-13.24,13.23-5.58,3.26-11.93,4.89-19.05,4.89Zm0-16.12c3.78,0,7.05-.92,9.79-2.76,2.75-1.84,4.86-4.32,6.35-7.44,1.49-3.12,2.23-6.62,2.23-10.47s-.74-7.35-2.23-10.47c-1.49-3.12-3.6-5.6-6.35-7.44-2.75-1.84-6.01-2.76-9.79-2.76s-7.05.92-9.79,2.76c-2.75,1.84-4.86,4.32-6.35,7.44-1.49,3.12-2.23,6.62-2.23,10.47s.74,7.35,2.23,10.47c1.49,3.12,3.6,5.61,6.35,7.44,2.75,1.84,6.01,2.76,9.79,2.76Z"/>
    <path d="m606.46,249.48v-16.12h49.57v16.12h-49.57Zm31.34,54.16c-6.12,0-10.92-1.79-14.39-5.38-3.47-3.58-5.2-8.45-5.2-14.61v-67.95h18.51v67.39c0,1.2.43,2.23,1.28,3.1.86.88,1.87,1.31,3.04,1.31h14.99v16.12h-18.24Z"/>
    <path d="m670.49,303.64v-16.12h33.63c1.08,0,2.05-.23,2.9-.69.85-.46,1.53-1.1,2.03-1.93.49-.83.74-1.74.74-2.76,0-1.1-.25-2.07-.74-2.89-.5-.83-1.17-1.49-2.03-2-.86-.5-1.82-.76-2.9-.76h-12.97c-4.41,0-8.4-.71-11.96-2.14-3.56-1.42-6.39-3.72-8.51-6.89-2.12-3.17-3.17-7.33-3.17-12.47,0-3.95.97-7.56,2.9-10.82,1.93-3.26,4.55-5.88,7.83-7.86,3.29-1.98,6.91-2.96,10.87-2.96h32.28v16.12h-30.53c-1.35,0-2.54.46-3.58,1.38-1.04.92-1.55,2.12-1.55,3.58s.49,2.69,1.49,3.65c.99.96,2.21,1.45,3.65,1.45h12.97c4.95,0,9.23.76,12.83,2.27,3.6,1.52,6.39,3.88,8.38,7.1,1.98,3.22,2.97,7.44,2.97,12.68,0,4.04-.99,7.74-2.97,11.09-1.98,3.36-4.64,6.02-7.97,7.99-3.33,1.98-7.07,2.96-11.21,2.96h-35.39Z"/>
  </g>
</svg>